<svg width="32" height="32" viewBox="0 0 40 40" fill="none" xmlns="http://www.w3.org/2000/svg">
  <rect width="40" height="40" rx="10" fill="url(#gradient)"/>
  <path d="M12 10H20C23.314 10 26 12.686 26 16C26 18.21 24.791 20.139 23 21.197V21.25C25.209 22.135 27 24.28 27 27C27 30.866 23.866 34 20 34H12V10Z" fill="white"/>
  <path d="M16 14V19H19C20.657 19 22 17.657 22 16.5C22 15.119 20.881 14 19.5 14H16Z" fill="url(#gradient)"/>
  <path d="M16 23V30H20C22.209 30 24 28.209 24 26.5C24 24.567 22.433 23 20.5 23H16Z" fill="url(#gradient)"/>
  <defs>
    <linearGradient id="gradient" x1="0" y1="0" x2="40" y2="40" gradientUnits="userSpaceOnUse">
      <stop stop-color="#F97316"/>
      <stop offset="1" stop-color="#EA580C"/>
    </linearGradient>
  </defs>
</svg>
